<svg width="420" height="113" viewBox="0 0 420 113" fill="none" xmlns="http://www.w3.org/2000/svg">
<g clip-path="url(#clip0_1_2)">
<path d="M17.74 75.52C4.54 72.32 0.380001 61.83 0.0300008 51.94C-0.219999 44.91 0.960001 38.16 4.79 32.14C9.61 24.56 16.98 20.97 25.59 20.09C34.88 19.14 44.02 20.37 52.85 23.51C53.53 23.75 54.37 24.82 54.37 25.5C54.29 44.72 54.19 63.95 53.88 83.17C53.79 88.84 52.5 94.39 49.85 99.49C44.93 108.97 36.68 112.55 26.44 112.5C21.5 112.47 16.67 112.04 12.3 109.34C7.11 106.13 5.4 101.23 5.62 95.53C5.91 87.84 10.05 82.15 15.66 77.34C16.28 76.81 16.9 76.27 17.74 75.54V75.52ZM35.02 34.32C27.82 32.05 22.94 34.43 20.75 41.28C18.86 47.2 18.89 53.27 20.39 59.25C21.64 64.25 24.63 66.39 28.85 65.89C32.48 65.46 34.87 62.22 35 57.42C35.08 54.51 35.02 51.59 35.02 48.67C35.02 43.85 35.02 39.04 35.02 34.31V34.32ZM34.9 76.37C33.43 77.4 31.96 78.3 30.64 79.39C26.31 82.96 22.8 87.05 22.52 93.04C22.32 97.45 24.9 99.74 29.21 99C32.38 98.45 34.53 96.37 34.81 92.36C35.17 87.18 34.9 81.95 34.9 76.37Z" fill="black"/>
<path d="M149.41 81.65C144.21 81.65 139.31 81.69 134.42 81.59C133.93 81.59 133.19 80.86 133.03 80.33C132.59 78.94 132.41 77.47 132.05 75.61C125.89 83.33 118.01 84.08 109.51 82.3C103.28 80.99 99.61 76.79 97.96 70.85C97.28 68.4 96.94 65.78 96.92 63.23C96.82 49.9 96.87 36.58 96.88 23.25C96.88 22.77 96.97 22.28 97.03 21.65H116.01C116.08 22.64 116.2 23.6 116.2 24.55C116.21 35.96 116.2 47.37 116.22 58.78C116.22 60.44 116.31 62.12 116.57 63.75C116.89 65.7 117.67 67.47 119.79 68.1C122.03 68.77 124.03 68.29 125.8 66.72C128.11 64.66 128.72 61.99 128.72 59.06C128.71 47.65 128.72 36.24 128.72 24.83C128.72 23.84 128.72 22.85 128.72 21.68H147.86C148.79 41.58 146.71 61.48 149.43 81.64L149.41 81.65Z" fill="black"/>
<path d="M199.93 64.71C201.54 68.67 203.22 72.81 204.96 77.1C201.29 79.95 197.14 81.45 192.77 82.52C186.36 84.1 179.93 84.3 173.52 82.76C164.07 80.49 158.12 74.45 155.84 65.11C152.92 53.17 153.82 41.65 161.11 31.27C165.98 24.34 172.83 20.64 181.23 19.95C186.6 19.51 191.99 19.84 196.68 22.77C207.65 29.62 207.24 47.08 196.09 53.86C190.2 57.45 183.66 58.81 176.92 59.45C173.99 59.72 173.77 60.04 175.09 62.76C177.68 68.08 183.2 70.36 189.98 68.52C193.3 67.62 196.45 66.07 199.93 64.72V64.71ZM173.18 46.81C178.04 46.97 183.97 44.73 186.14 42.05C187.71 40.11 187.99 37.47 186.78 35.57C185.33 33.3 183.15 33.09 180.86 33.76C179.63 34.12 178.33 34.71 177.4 35.57C174.22 38.53 173.37 42.44 173.17 46.81H173.18Z" fill="black"/>
<path d="M92.93 66.36C94.24 70.4 95.39 74.2 96.72 77.93C97.4 79.83 95.86 80.27 94.92 80.58C91.87 81.61 88.76 82.85 85.61 83.06C81.35 83.34 76.92 83.26 72.76 82.4C66.4 81.09 62.68 75.42 62.03 67.3C61.82 64.73 61.72 62.15 61.71 59.57C61.68 40.83 61.7 22.09 61.7 3.34V0H81.19C81.19 1.09 81.19 2.14 81.19 3.18C81.19 21.76 81.19 40.33 81.19 58.91C81.19 59.24 81.19 59.58 81.19 59.91C81.2 67.76 84.42 69.84 91.78 66.77C92.07 66.65 92.38 66.55 92.94 66.36H92.93Z" fill="black"/>
<path d="M233.88 83.75C230.52 83.66 227.29 83.01 224.23 81.63C221.84 80.55 219.63 79.22 217.88 77.15C216.17 75.12 216.43 71.44 219.04 69.79C220.98 68.57 223.81 68.66 225.51 70.21C227.95 72.43 230.88 73.13 234.02 73.06C237.58 72.98 240.98 72.04 244.27 70.72C245.18 70.35 246.07 69.91 246.93 69.42C247.67 69 247.62 68.39 246.99 67.9C245.24 66.53 243.55 65.05 241.66 63.9C238.46 61.95 235.12 60.24 231.84 58.41C228.35 56.46 224.95 54.35 221.9 51.75C218.76 49.08 216.04 45.98 214.52 42.08C213.3 38.93 212.78 35.64 213.44 32.22C214.2 28.32 216.34 25.32 219.13 22.61C221.47 20.33 224.15 18.55 227.01 17.09C228.81 16.17 230.8 15.59 232.75 14.98C234.98 14.29 237.3 13.98 239.63 14.24C244.27 14.75 248.61 16.02 251.55 19.98C253.22 22.23 253.56 24.94 253.16 27.65C252.94 29.12 251.79 30.1 250.42 30.68C249.87 30.91 249.28 31.08 248.7 31.23C246.55 31.76 244.04 29.93 243.38 27.94C243.07 26.99 242.44 26.54 241.62 26.15C239.59 25.18 237.6 25.36 235.48 26C232.19 26.99 229.26 28.56 226.77 30.91C223.9 33.61 224.3 36.66 226.47 39.64C228.41 42.31 230.98 44.23 233.72 45.93C236.4 47.59 239.2 49.07 241.94 50.62C245.94 52.88 249.99 55.1 253.54 58.05C255.44 59.63 256.97 61.58 258.05 63.86C258.85 65.56 259.35 67.27 259.25 69.16C259.07 72.44 257.57 75.04 255.06 77.05C252.74 78.91 250.09 80.17 247.3 81.2C244.26 82.32 241.11 82.97 237.93 83.45C236.59 83.65 235.23 83.66 233.87 83.75H233.88Z" fill="#F0047F"/>
<path d="M276.02 63.13C275.93 63.75 275.84 64.09 275.84 64.44C275.79 67.71 275.95 70.96 276.58 74.18C276.72 74.9 277.07 75.59 277.36 76.28C278.34 78.61 277.1 81.4 274.89 82.51C272.19 83.86 269.38 82.23 267.91 80.18C266.7 78.49 266.12 76.59 265.72 74.53C264.3 67.2 264.51 59.81 264.7 52.42C264.82 47.65 265.07 42.89 265.47 38.14C265.83 33.88 266.46 29.63 267 25.39C267.26 23.33 267.53 21.26 267.92 19.22C268.55 16 271.01 13.26 274.27 13.68C276.25 13.93 278.1 15.78 278.64 17.74C279.25 19.96 278.29 22.02 278.3 24.16C278.3 25.81 277.94 27.45 277.79 29.1C277.38 33.55 276.99 37.99 276.62 42.44C276.55 43.29 276.61 44.16 276.61 45.26C277.87 44.18 278.87 43.19 280 42.39C282.15 40.86 284.36 39.4 286.59 37.99C288.26 36.93 289.98 35.94 291.73 35.01C294.09 33.76 296.51 32.62 298.88 31.38C300.2 30.69 301.57 30.67 303.01 30.71C305.6 30.79 308.16 34.31 307.22 37.01C306.63 38.7 305.52 39.73 304.1 40.58C300.85 42.53 297.59 44.46 294.34 46.41C292.38 47.58 290.37 48.69 288.5 49.99C287.1 50.96 285.8 52.11 284.58 53.31C283.59 54.29 283.68 55.02 284.76 56.32C286.6 58.55 288.82 60.33 291.27 61.86C293.42 63.2 295.7 64.3 298.17 64.88C299.1 65.1 300.08 65.14 301.04 65.18C304.73 65.33 307.1 68.18 306.32 71.78C305.81 74.11 304.14 75.38 301.57 75.68C296.93 76.22 292.58 75.08 288.46 73.02C284.64 71.11 281.25 68.56 278.17 65.6C277.46 64.92 276.87 64.11 276.05 63.15L276.02 63.13Z" fill="#F0047F"/>
<path d="M400.08 21.47C403.08 21.47 406.04 21.79 408.88 22.84C409.24 22.97 409.58 23.19 409.88 23.43C410.92 24.29 412.09 25.06 412.91 26.1C414.15 27.66 414.6 29.47 413.55 31.4C412.81 32.77 411.61 33.62 410.2 33.91C408.3 34.3 406.35 34.26 404.66 32.96C404.38 32.75 403.92 32.73 403.54 32.73C401.49 32.73 399.41 32.59 397.38 32.81C394.45 33.13 391.89 34.38 390.05 36.77C389.79 37.11 389.85 37.88 390.05 38.34C390.69 39.91 392.02 40.9 393.33 41.87C396.6 44.3 400.26 46.07 403.82 48C407.02 49.74 410.04 51.78 412.73 54.26C415.2 56.53 417.31 59.05 418.35 62.31C419.09 64.63 419.41 66.96 418.94 69.42C418.51 71.69 417.69 73.74 416.32 75.58C414.68 77.78 412.65 79.54 410.3 80.96C407.53 82.62 404.52 83.73 401.36 84.14C399.11 84.44 396.78 84.3 394.5 84.1C391.89 83.87 389.33 83.25 386.86 82.31C384.28 81.33 381.82 80.1 379.8 78.22C378.37 76.88 377.82 74.34 379.36 72C380.67 70 383.95 69.19 386.01 70.3C387.91 71.32 389.9 72.28 391.96 72.84C395.46 73.78 399.05 74.44 402.63 73.09C404.47 72.39 406.01 71.22 407.27 69.74C408.37 68.46 408.23 67.11 407.23 65.57C405.71 63.24 403.68 61.44 401.35 60.04C398.11 58.1 394.72 56.39 391.44 54.5C387.91 52.46 384.63 50.09 382.05 46.85C380.18 44.51 378.87 41.89 378.52 38.95C377.92 33.87 380.01 29.84 383.93 26.72C386.28 24.84 389 23.65 391.87 22.76C394.54 21.93 397.26 21.5 400.05 21.48L400.08 21.47Z" fill="#F0047F"/>
<path d="M371.84 21.7C371.43 25.03 371.03 27.96 370.7 30.9C370.3 34.5 369.96 38.1 369.61 41.71C368.71 51.03 368.35 60.38 368.51 69.75C368.55 72.42 369.02 75.08 369.24 77.75C369.43 80.01 369.42 82.23 367.49 83.91C365.82 85.36 363.88 85.41 361.96 84.77C360.05 84.13 358.94 82.69 358.46 80.65C357.06 74.7 357.19 68.66 357.25 62.63C357.28 59.52 357.27 56.41 357.45 53.3C357.8 47.37 358.15 41.43 358.73 35.51C359.2 30.74 359.93 26 360.68 21.26C360.96 19.52 361.51 17.8 363.09 16.66C366.08 14.49 369.99 15.56 371.15 19.11C371.46 20.07 371.67 21.06 371.84 21.71V21.7Z" fill="#F0047F"/>
<path d="M335.22 63.88C335.56 56.5 335.79 49.71 336.22 42.94C336.49 38.7 337.03 34.47 337.53 30.25C337.88 27.29 338.3 24.33 338.82 21.39C339.15 19.55 339.67 17.72 341.36 16.57C344.32 14.56 347.97 15.57 349.35 19.05C350.22 21.23 349.75 23.33 349.54 25.47C349.26 28.2 348.89 30.92 348.59 33.65C348.19 37.37 347.79 41.09 347.45 44.81C347.27 46.85 347.18 48.91 347.12 50.96C346.94 57.12 346.7 63.27 346.68 69.43C346.68 72.19 347.17 74.94 347.4 77.7C347.58 79.89 347.58 82.03 345.84 83.77C343.69 85.91 339.06 85.49 337.4 82.59C336.28 80.63 336.05 78.41 335.9 76.22C335.61 71.92 335.42 67.61 335.22 63.88Z" fill="#F0047F"/>
<path d="M313.48 65.12C313.57 61.17 313.53 57.2 313.79 53.26C314.01 50.02 314.52 46.79 315.03 43.58C315.33 41.71 315.86 39.88 316.31 38.04C316.73 36.33 318.5 34.89 320.24 34.6C322.27 34.26 324.09 34.58 325.57 36.06C326.32 36.81 326.9 37.75 326.8 38.87C326.63 40.73 326.46 42.59 326.13 44.42C324.84 51.68 324.8 59.01 324.76 66.34C324.74 69.42 324.78 72.5 324.8 75.58C324.8 76.03 324.85 76.49 324.96 76.92C325.55 79.26 325.02 80.73 322.99 82.01C320.95 83.29 317.85 83.54 315.87 81.83C314.98 81.06 314.3 80.1 314.16 78.93C313.89 76.69 313.66 74.44 313.56 72.19C313.46 69.84 313.54 67.48 313.54 65.12C313.51 65.12 313.49 65.12 313.46 65.12H313.48Z" fill="#F0047F"/>
<path d="M328.03 21.63C328.03 22.72 328.04 23.8 328.03 24.89C328 27.75 323.85 30.03 321.53 29C319.92 28.28 318.67 27.39 317.92 25.83C317.74 25.46 317.63 25.03 317.61 24.62C317.5 22.36 317.53 20.11 318.18 17.9C318.72 16.08 320.85 14.4 323 14.23C324.98 14.08 326.66 15.18 327.59 16.94C328.4 18.48 328.05 20.06 328.04 21.63H328.03Z" fill="#F0047F"/>
</g>
<defs>
<clipPath id="clip0_1_2">
<rect width="419.16" height="112.49" fill="white"/>
</clipPath>
</defs>
</svg>
